<svg width="1440" height="500" viewBox="0 0 1440 500" fill="none" xmlns="http://www.w3.org/2000/svg">
<rect width="1440" height="500" fill="black"/>
<g opacity="0.5">
<mask id="mask0_603_763" style="mask-type:alpha" maskUnits="userSpaceOnUse" x="0" y="0" width="1440" height="500">
<rect width="1440" height="500" fill="#F5ECE3"/>
</mask>
<g mask="url(#mask0_603_763)">
<g opacity="0.5">
<path d="M1110.8 97.382L1093.66 131.801H1098.88L1113.87 101.684M1110.8 97.382L1113.55 91.8476M1110.8 97.382L1113.87 101.684M1113.55 91.8476L1135.38 48.0067H1140.6M1113.55 91.8476L1116.56 96.2869M1140.6 131.801H1145.81V48.0067H1140.6M1140.6 131.801H1135.38L1113.87 101.684M1140.6 131.801V48.0067M1140.6 131.801L1116.56 96.2869M1140.6 48.0067L1116.56 96.2869M1161.46 126.564V48.0067H1166.67V126.564M1161.46 126.564V131.801H1187.53L1192.75 126.564H1166.67M1161.46 126.564H1166.67M1380.48 48.0067H1375.27V131.801L1380.48 131.801M1380.48 48.0067H1385.7L1407.52 91.8476M1380.48 48.0067V131.801M1380.48 48.0067L1404.52 96.287M1380.48 131.801L1385.7 131.8L1407.2 101.684M1380.48 131.801L1404.52 96.287M1410.28 97.382L1427.41 131.8L1422.2 131.801L1407.2 101.684M1410.28 97.382L1407.52 91.8476M1410.28 97.382L1407.2 101.684M1407.52 91.8476L1404.52 96.287M1427.41 48.0067H1422.2V82.4314L1427.41 91.8476V58.4803M1427.41 48.0067V58.4803M1427.41 48.0067L1474.35 121.326M1427.41 58.4803L1474.35 131.8M1474.35 131.8H1479.56V48.0061H1474.35V121.326M1474.35 131.8V121.326M1116.56 96.2869L1113.87 101.684M1407.2 101.684L1404.52 96.287M1063 48.0067V131.801H1068.21V53.2439H1083.23H1104.09L1088.45 84.6666H1087.16L1092.37 89.9038H1093.66L1114.52 48.0067H1083.23H1063ZM1302.26 131.801V48.0067L1312.69 48.0061L1354.41 48.0067V68.9546L1333.55 91.8457L1359.62 131.801L1354.41 131.8L1328.33 91.8457L1349.19 68.9546V53.2432H1307.47V96.2869V131.8L1302.26 131.801ZM1500.42 48.0061V53.2432H1526.5V131.8L1531.71 131.801V53.2432H1563L1557.79 48.0067L1500.42 48.0061ZM1276.32 60.5568V60.5568C1258.98 43.1503 1230.8 43.1503 1213.47 60.5568V60.5568C1196.24 77.8587 1196.24 105.833 1213.47 123.134V123.134C1230.8 140.541 1258.98 140.541 1276.32 123.134V123.134C1293.54 105.833 1293.54 77.8587 1276.32 60.5568ZM1271.08 65.7736V65.7736C1256.64 51.2682 1233.15 51.2682 1218.71 65.7736V65.7736C1204.35 80.1918 1204.35 103.503 1218.71 117.922V117.922C1233.15 132.427 1256.64 132.427 1271.08 117.922V117.922C1285.44 103.503 1285.44 80.1918 1271.08 65.7736Z" stroke="white" stroke-width="9"/>
</g>
<g opacity="0.5">
<path d="M1110.8 255.382L1093.66 289.801H1098.88L1113.87 259.684M1110.8 255.382L1113.55 249.848M1110.8 255.382L1113.87 259.684M1113.55 249.848L1135.38 206.007H1140.6M1113.55 249.848L1116.56 254.287M1140.6 289.801H1145.81V206.007H1140.6M1140.6 289.801H1135.38L1113.87 259.684M1140.6 289.801V206.007M1140.6 289.801L1116.56 254.287M1140.6 206.007L1116.56 254.287M1161.46 284.564V206.007H1166.67V284.564M1161.46 284.564V289.801H1187.53L1192.75 284.564H1166.67M1161.46 284.564H1166.67M1380.48 206.007H1375.27V289.801L1380.48 289.801M1380.48 206.007H1385.7L1407.52 249.848M1380.48 206.007V289.801M1380.48 206.007L1404.52 254.287M1380.48 289.801L1385.7 289.8L1407.2 259.684M1380.48 289.801L1404.52 254.287M1410.28 255.382L1427.41 289.8L1422.2 289.801L1407.2 259.684M1410.28 255.382L1407.52 249.848M1410.28 255.382L1407.2 259.684M1407.52 249.848L1404.52 254.287M1427.41 206.007H1422.2V240.431L1427.41 249.848V216.48M1427.41 206.007V216.48M1427.41 206.007L1474.35 279.326M1427.41 216.48L1474.35 289.8M1474.35 289.8H1479.56V206.006H1474.35V279.326M1474.35 289.8V279.326M1116.56 254.287L1113.87 259.684M1407.2 259.684L1404.52 254.287M1063 206.007V289.801H1068.21V211.244H1083.23H1104.09L1088.45 242.667H1087.16L1092.37 247.904H1093.66L1114.52 206.007H1083.23H1063ZM1302.26 289.801V206.007L1312.69 206.006L1354.41 206.007V226.955L1333.55 249.846L1359.62 289.801L1354.41 289.8L1328.33 249.846L1349.19 226.955V211.243H1307.47V254.287V289.8L1302.26 289.801ZM1500.42 206.006V211.243H1526.5V289.8L1531.71 289.801V211.243H1563L1557.79 206.007L1500.42 206.006ZM1276.32 218.557V218.557C1258.98 201.15 1230.8 201.15 1213.47 218.557V218.557C1196.24 235.859 1196.24 263.833 1213.47 281.134V281.134C1230.8 298.541 1258.98 298.541 1276.32 281.134V281.134C1293.54 263.833 1293.54 235.859 1276.32 218.557ZM1271.08 223.774V223.774C1256.64 209.268 1233.15 209.268 1218.71 223.774V223.774C1204.35 238.192 1204.35 261.503 1218.71 275.922V275.922C1233.15 290.427 1256.64 290.427 1271.08 275.922V275.922C1285.44 261.503 1285.44 238.192 1271.08 223.774Z" stroke="white" stroke-width="9"/>
</g>
<g opacity="0.5">
<path d="M1110.8 413.382L1093.66 447.801H1098.88L1113.87 417.684M1110.8 413.382L1113.55 407.848M1110.8 413.382L1113.87 417.684M1113.55 407.848L1135.38 364.007H1140.6M1113.55 407.848L1116.56 412.287M1140.6 447.801H1145.81V364.007H1140.6M1140.6 447.801H1135.38L1113.87 417.684M1140.6 447.801V364.007M1140.6 447.801L1116.56 412.287M1140.6 364.007L1116.56 412.287M1161.46 442.564V364.007H1166.67V442.564M1161.46 442.564V447.801H1187.53L1192.75 442.564H1166.67M1161.46 442.564H1166.67M1380.48 364.007H1375.27V447.801L1380.48 447.801M1380.48 364.007H1385.7L1407.52 407.848M1380.48 364.007V447.801M1380.48 364.007L1404.52 412.287M1380.48 447.801L1385.7 447.8L1407.2 417.684M1380.48 447.801L1404.52 412.287M1410.28 413.382L1427.41 447.8L1422.2 447.801L1407.2 417.684M1410.28 413.382L1407.52 407.848M1410.28 413.382L1407.2 417.684M1407.52 407.848L1404.52 412.287M1427.41 364.007H1422.2V398.431L1427.41 407.848V374.48M1427.41 364.007V374.48M1427.41 364.007L1474.35 437.326M1427.41 374.48L1474.35 447.8M1474.35 447.8H1479.56V364.006H1474.35V437.326M1474.35 447.8V437.326M1116.56 412.287L1113.87 417.684M1407.2 417.684L1404.52 412.287M1063 364.007V447.801H1068.21V369.244H1083.23H1104.09L1088.45 400.667H1087.16L1092.37 405.904H1093.66L1114.52 364.007H1083.23H1063ZM1302.26 447.801V364.007L1312.69 364.006L1354.41 364.007V384.955L1333.55 407.846L1359.62 447.801L1354.41 447.8L1328.33 407.846L1349.19 384.955V369.243H1307.47V412.287V447.8L1302.26 447.801ZM1500.42 364.006V369.243H1526.5V447.8L1531.71 447.801V369.243H1563L1557.79 364.007L1500.42 364.006ZM1276.32 376.557V376.557C1258.98 359.15 1230.8 359.15 1213.47 376.557V376.557C1196.24 393.859 1196.24 421.833 1213.47 439.134V439.134C1230.8 456.541 1258.98 456.541 1276.32 439.134V439.134C1293.54 421.833 1293.54 393.859 1276.32 376.557ZM1271.08 381.774V381.774C1256.64 367.268 1233.15 367.268 1218.71 381.774V381.774C1204.35 396.192 1204.35 419.503 1218.71 433.922V433.922C1233.15 448.427 1256.64 448.427 1271.08 433.922V433.922C1285.44 419.503 1285.44 396.192 1271.08 381.774Z" stroke="white" stroke-width="9"/>
</g>
<g opacity="0.5">
<path d="M-333.2 97.382L-350.337 131.801H-345.122L-330.128 101.684M-333.2 97.382L-330.445 91.8476M-333.2 97.382L-330.128 101.684M-330.445 91.8476L-308.618 48.0067H-303.403M-330.445 91.8476L-327.44 96.2869M-303.403 131.801H-298.188V48.0067H-303.403M-303.403 131.801H-308.618L-330.128 101.684M-303.403 131.801V48.0067M-303.403 131.801L-327.44 96.2869M-303.403 48.0067L-327.44 96.2869M-282.544 126.564V48.0067H-277.329V126.564M-282.544 126.564V131.801H-256.469L-251.254 126.564H-277.329M-282.544 126.564H-277.329M-63.5198 48.0067H-68.7346V131.801L-63.5198 131.801M-63.5198 48.0067H-58.305L-36.4776 91.8476M-63.5198 48.0067V131.801M-63.5198 48.0067L-39.4824 96.287M-63.5198 131.801L-58.305 131.8L-36.7951 101.684M-63.5198 131.801L-39.4824 96.287M-33.7222 97.382L-16.5861 131.8L-21.801 131.801L-36.7951 101.684M-33.7222 97.382L-36.4776 91.8476M-33.7222 97.382L-36.7951 101.684M-36.4776 91.8476L-39.4824 96.287M-16.5861 48.0067H-21.801V82.4314L-16.5861 91.8476V58.4803M-16.5861 48.0067V58.4803M-16.5861 48.0067L30.3475 121.326M-16.5861 58.4803L30.3475 131.8M30.3475 131.8H35.5624V48.0061H30.3475V121.326M30.3475 131.8V121.326M-327.44 96.2869L-330.128 101.684M-36.7951 101.684L-39.4824 96.287M-381 48.0067V131.801H-375.785V53.2439H-360.766H-339.907L-355.552 84.6666H-356.845L-351.63 89.9038H-350.337L-329.477 48.0067H-360.766H-381ZM-141.743 131.801V48.0067L-131.313 48.0061L-89.5941 48.0067V68.9546L-110.453 91.8457L-84.3792 131.801L-89.5941 131.8L-115.668 91.8457L-94.8089 68.9546V53.2432H-136.528V96.2869V131.8L-141.743 131.801ZM56.4218 48.0061V53.2432H82.496V131.8L87.7109 131.801V53.2432H119L113.785 48.0067L56.4218 48.0061ZM-167.683 60.5568V60.5568C-185.016 43.1503 -213.196 43.1503 -230.529 60.5568V60.5568C-247.757 77.8587 -247.757 105.833 -230.529 123.134V123.134C-213.196 140.541 -185.016 140.541 -167.683 123.134V123.134C-150.455 105.833 -150.455 77.8587 -167.683 60.5568ZM-172.921 65.7736V65.7736C-187.364 51.2682 -210.848 51.2682 -225.291 65.7736V65.7736C-239.648 80.1918 -239.648 103.503 -225.291 117.922V117.922C-210.848 132.427 -187.364 132.427 -172.921 117.922V117.922C-158.564 103.503 -158.564 80.1918 -172.921 65.7736Z" stroke="white" stroke-width="9"/>
</g>
<g opacity="0.5">
<path d="M388.8 97.382L371.663 131.801H376.878L391.872 101.684M388.8 97.382L391.555 91.8476M388.8 97.382L391.872 101.684M391.555 91.8476L413.382 48.0067H418.597M391.555 91.8476L394.56 96.2869M418.597 131.801H423.812V48.0067H418.597M418.597 131.801H413.382L391.872 101.684M418.597 131.801V48.0067M418.597 131.801L394.56 96.2869M418.597 48.0067L394.56 96.2869M439.456 126.564V48.0067H444.671V126.564M439.456 126.564V131.801H465.531L470.746 126.564H444.671M439.456 126.564H444.671M658.48 48.0067H653.265V131.801L658.48 131.801M658.48 48.0067H663.695L685.522 91.8476M658.48 48.0067V131.801M658.48 48.0067L682.518 96.287M658.48 131.801L663.695 131.8L685.205 101.684M658.48 131.801L682.518 96.287M688.278 97.382L705.414 131.8L700.199 131.801L685.205 101.684M688.278 97.382L685.522 91.8476M688.278 97.382L685.205 101.684M685.522 91.8476L682.518 96.287M705.414 48.0067H700.199V82.4314L705.414 91.8476V58.4803M705.414 48.0067V58.4803M705.414 48.0067L752.348 121.326M705.414 58.4803L752.348 131.8M752.348 131.8H757.562V48.0061H752.348V121.326M752.348 131.8V121.326M394.56 96.2869L391.872 101.684M685.205 101.684L682.518 96.287M341 48.0067V131.801H346.215V53.2439H361.234H382.093L366.448 84.6666H365.155L370.37 89.9038H371.663L392.523 48.0067H361.234H341ZM580.257 131.801V48.0067L590.687 48.0061L632.406 48.0067V68.9546L611.547 91.8457L637.621 131.801L632.406 131.8L606.332 91.8457L627.191 68.9546V53.2432H585.472V96.2869V131.8L580.257 131.801ZM778.422 48.0061V53.2432H804.496V131.8L809.711 131.801V53.2432H841L835.785 48.0067L778.422 48.0061ZM554.317 60.5568V60.5568C536.984 43.1503 508.804 43.1503 491.471 60.5568V60.5568C474.243 77.8587 474.243 105.833 491.471 123.134V123.134C508.804 140.541 536.984 140.541 554.317 123.134V123.134C571.545 105.833 571.545 77.8587 554.317 60.5568ZM549.079 65.7736V65.7736C534.636 51.2682 511.152 51.2682 496.709 65.7736V65.7736C482.352 80.1918 482.352 103.503 496.709 117.922V117.922C511.152 132.427 534.636 132.427 549.079 117.922V117.922C563.436 103.503 563.436 80.1918 549.079 65.7736Z" stroke="white" stroke-width="9"/>
</g>
<g opacity="0.5">
<path d="M-333.2 255.382L-350.337 289.801H-345.122L-330.128 259.684M-333.2 255.382L-330.445 249.848M-333.2 255.382L-330.128 259.684M-330.445 249.848L-308.618 206.007H-303.403M-330.445 249.848L-327.44 254.287M-303.403 289.801H-298.188V206.007H-303.403M-303.403 289.801H-308.618L-330.128 259.684M-303.403 289.801V206.007M-303.403 289.801L-327.44 254.287M-303.403 206.007L-327.44 254.287M-282.544 284.564V206.007H-277.329V284.564M-282.544 284.564V289.801H-256.469L-251.254 284.564H-277.329M-282.544 284.564H-277.329M-63.5198 206.007H-68.7346V289.801L-63.5198 289.801M-63.5198 206.007H-58.305L-36.4776 249.848M-63.5198 206.007V289.801M-63.5198 206.007L-39.4824 254.287M-63.5198 289.801L-58.305 289.8L-36.7951 259.684M-63.5198 289.801L-39.4824 254.287M-33.7222 255.382L-16.5861 289.8L-21.801 289.801L-36.7951 259.684M-33.7222 255.382L-36.4776 249.848M-33.7222 255.382L-36.7951 259.684M-36.4776 249.848L-39.4824 254.287M-16.5861 206.007H-21.801V240.431L-16.5861 249.848V216.48M-16.5861 206.007V216.48M-16.5861 206.007L30.3475 279.326M-16.5861 216.48L30.3475 289.8M30.3475 289.8H35.5624V206.006H30.3475V279.326M30.3475 289.8V279.326M-327.44 254.287L-330.128 259.684M-36.7951 259.684L-39.4824 254.287M-381 206.007V289.801H-375.785V211.244H-360.766H-339.907L-355.552 242.667H-356.845L-351.63 247.904H-350.337L-329.477 206.007H-360.766H-381ZM-141.743 289.801V206.007L-131.313 206.006L-89.5941 206.007V226.955L-110.453 249.846L-84.3792 289.801L-89.5941 289.8L-115.668 249.846L-94.8089 226.955V211.243H-136.528V254.287V289.8L-141.743 289.801ZM56.4218 206.006V211.243H82.496V289.8L87.7109 289.801V211.243H119L113.785 206.007L56.4218 206.006ZM-167.683 218.557V218.557C-185.016 201.15 -213.196 201.15 -230.529 218.557V218.557C-247.757 235.859 -247.757 263.833 -230.529 281.134V281.134C-213.196 298.541 -185.016 298.541 -167.683 281.134V281.134C-150.455 263.833 -150.455 235.859 -167.683 218.557ZM-172.921 223.774V223.774C-187.364 209.268 -210.848 209.268 -225.291 223.774V223.774C-239.648 238.192 -239.648 261.503 -225.291 275.922V275.922C-210.848 290.427 -187.364 290.427 -172.921 275.922V275.922C-158.564 261.503 -158.564 238.192 -172.921 223.774Z" stroke="white" stroke-width="9"/>
</g>
<g opacity="0.5">
<path d="M388.8 255.382L371.663 289.801H376.878L391.872 259.684M388.8 255.382L391.555 249.848M388.8 255.382L391.872 259.684M391.555 249.848L413.382 206.007H418.597M391.555 249.848L394.56 254.287M418.597 289.801H423.812V206.007H418.597M418.597 289.801H413.382L391.872 259.684M418.597 289.801V206.007M418.597 289.801L394.56 254.287M418.597 206.007L394.56 254.287M439.456 284.564V206.007H444.671V284.564M439.456 284.564V289.801H465.531L470.746 284.564H444.671M439.456 284.564H444.671M658.48 206.007H653.265V289.801L658.48 289.801M658.48 206.007H663.695L685.522 249.848M658.48 206.007V289.801M658.48 206.007L682.518 254.287M658.48 289.801L663.695 289.8L685.205 259.684M658.48 289.801L682.518 254.287M688.278 255.382L705.414 289.8L700.199 289.801L685.205 259.684M688.278 255.382L685.522 249.848M688.278 255.382L685.205 259.684M685.522 249.848L682.518 254.287M705.414 206.007H700.199V240.431L705.414 249.848V216.48M705.414 206.007V216.48M705.414 206.007L752.348 279.326M705.414 216.48L752.348 289.8M752.348 289.8H757.562V206.006H752.348V279.326M752.348 289.8V279.326M394.56 254.287L391.872 259.684M685.205 259.684L682.518 254.287M341 206.007V289.801H346.215V211.244H361.234H382.093L366.448 242.667H365.155L370.37 247.904H371.663L392.523 206.007H361.234H341ZM580.257 289.801V206.007L590.687 206.006L632.406 206.007V226.955L611.547 249.846L637.621 289.801L632.406 289.8L606.332 249.846L627.191 226.955V211.243H585.472V254.287V289.8L580.257 289.801ZM778.422 206.006V211.243H804.496V289.8L809.711 289.801V211.243H841L835.785 206.007L778.422 206.006ZM554.317 218.557V218.557C536.984 201.15 508.804 201.15 491.471 218.557V218.557C474.243 235.859 474.243 263.833 491.471 281.134V281.134C508.804 298.541 536.984 298.541 554.317 281.134V281.134C571.545 263.833 571.545 235.859 554.317 218.557ZM549.079 223.774V223.774C534.636 209.268 511.152 209.268 496.709 223.774V223.774C482.352 238.192 482.352 261.503 496.709 275.922V275.922C511.152 290.427 534.636 290.427 549.079 275.922V275.922C563.436 261.503 563.436 238.192 549.079 223.774Z" stroke="white" stroke-width="9"/>
</g>
<g opacity="0.5">
<path d="M-333.2 413.382L-350.337 447.801H-345.122L-330.128 417.684M-333.2 413.382L-330.445 407.848M-333.2 413.382L-330.128 417.684M-330.445 407.848L-308.618 364.007H-303.403M-330.445 407.848L-327.44 412.287M-303.403 447.801H-298.188V364.007H-303.403M-303.403 447.801H-308.618L-330.128 417.684M-303.403 447.801V364.007M-303.403 447.801L-327.44 412.287M-303.403 364.007L-327.44 412.287M-282.544 442.564V364.007H-277.329V442.564M-282.544 442.564V447.801H-256.469L-251.254 442.564H-277.329M-282.544 442.564H-277.329M-63.5198 364.007H-68.7346V447.801L-63.5198 447.801M-63.5198 364.007H-58.305L-36.4776 407.848M-63.5198 364.007V447.801M-63.5198 364.007L-39.4824 412.287M-63.5198 447.801L-58.305 447.8L-36.7951 417.684M-63.5198 447.801L-39.4824 412.287M-33.7222 413.382L-16.5861 447.8L-21.801 447.801L-36.7951 417.684M-33.7222 413.382L-36.4776 407.848M-33.7222 413.382L-36.7951 417.684M-36.4776 407.848L-39.4824 412.287M-16.5861 364.007H-21.801V398.431L-16.5861 407.848V374.48M-16.5861 364.007V374.48M-16.5861 364.007L30.3475 437.326M-16.5861 374.48L30.3475 447.8M30.3475 447.8H35.5624V364.006H30.3475V437.326M30.3475 447.8V437.326M-327.44 412.287L-330.128 417.684M-36.7951 417.684L-39.4824 412.287M-381 364.007V447.801H-375.785V369.244H-360.766H-339.907L-355.552 400.667H-356.845L-351.63 405.904H-350.337L-329.477 364.007H-360.766H-381ZM-141.743 447.801V364.007L-131.313 364.006L-89.5941 364.007V384.955L-110.453 407.846L-84.3792 447.801L-89.5941 447.8L-115.668 407.846L-94.8089 384.955V369.243H-136.528V412.287V447.8L-141.743 447.801ZM56.4218 364.006V369.243H82.496V447.8L87.7109 447.801V369.243H119L113.785 364.007L56.4218 364.006ZM-167.683 376.557V376.557C-185.016 359.15 -213.196 359.15 -230.529 376.557V376.557C-247.757 393.859 -247.757 421.833 -230.529 439.134V439.134C-213.196 456.541 -185.016 456.541 -167.683 439.134V439.134C-150.455 421.833 -150.455 393.859 -167.683 376.557ZM-172.921 381.774V381.774C-187.364 367.268 -210.848 367.268 -225.291 381.774V381.774C-239.648 396.192 -239.648 419.503 -225.291 433.922V433.922C-210.848 448.427 -187.364 448.427 -172.921 433.922V433.922C-158.564 419.503 -158.564 396.192 -172.921 381.774Z" stroke="white" stroke-width="9"/>
</g>
<g opacity="0.5">
<path d="M388.8 413.382L371.663 447.801H376.878L391.872 417.684M388.8 413.382L391.555 407.848M388.8 413.382L391.872 417.684M391.555 407.848L413.382 364.007H418.597M391.555 407.848L394.56 412.287M418.597 447.801H423.812V364.007H418.597M418.597 447.801H413.382L391.872 417.684M418.597 447.801V364.007M418.597 447.801L394.56 412.287M418.597 364.007L394.56 412.287M439.456 442.564V364.007H444.671V442.564M439.456 442.564V447.801H465.531L470.746 442.564H444.671M439.456 442.564H444.671M658.48 364.007H653.265V447.801L658.48 447.801M658.48 364.007H663.695L685.522 407.848M658.48 364.007V447.801M658.48 364.007L682.518 412.287M658.48 447.801L663.695 447.8L685.205 417.684M658.48 447.801L682.518 412.287M688.278 413.382L705.414 447.8L700.199 447.801L685.205 417.684M688.278 413.382L685.522 407.848M688.278 413.382L685.205 417.684M685.522 407.848L682.518 412.287M705.414 364.007H700.199V398.431L705.414 407.848V374.48M705.414 364.007V374.48M705.414 364.007L752.348 437.326M705.414 374.48L752.348 447.8M752.348 447.8H757.562V364.006H752.348V437.326M752.348 447.8V437.326M394.56 412.287L391.872 417.684M685.205 417.684L682.518 412.287M341 364.007V447.801H346.215V369.244H361.234H382.093L366.448 400.667H365.155L370.37 405.904H371.663L392.523 364.007H361.234H341ZM580.257 447.801V364.007L590.687 364.006L632.406 364.007V384.955L611.547 407.846L637.621 447.801L632.406 447.8L606.332 407.846L627.191 384.955V369.243H585.472V412.287V447.8L580.257 447.801ZM778.422 364.006V369.243H804.496V447.8L809.711 447.801V369.243H841L835.785 364.007L778.422 364.006ZM554.317 376.557V376.557C536.984 359.15 508.804 359.15 491.471 376.557V376.557C474.243 393.859 474.243 421.833 491.471 439.134V439.134C508.804 456.541 536.984 456.541 554.317 439.134V439.134C571.545 421.833 571.545 393.859 554.317 376.557ZM549.079 381.774V381.774C534.636 367.268 511.152 367.268 496.709 381.774V381.774C482.352 396.192 482.352 419.503 496.709 433.922V433.922C511.152 448.427 534.636 448.427 549.079 433.922V433.922C563.436 419.503 563.436 396.192 549.079 381.774Z" stroke="white" stroke-width="9"/>
</g>
</g>
</g>
</svg>
