<svg width="301" height="63" viewBox="0 0 301 63" fill="none" xmlns="http://www.w3.org/2000/svg">
<path d="M26.7329 32.5361L31.3603 40.8887V11.2905L26.7329 2V32.5361Z" fill="white"/>
<path d="M47.3325 32.5361L42.7051 40.8887V11.2905L47.3325 2V32.5361Z" fill="white"/>
<path d="M17.0236 43.1544L21.7509 45.8813L13.1002 31.3868L8.09874 28.2007L17.0236 43.1544Z" fill="white"/>
<path d="M57.1932 43.1544L52.4659 45.8813L61.1166 31.3868L66.1181 28.2007L57.1932 43.1544Z" fill="white"/>
<path d="M58.5077 54.2755L53.3532 56.9562L67.3186 59L73 57.2993L58.5077 54.2755Z" fill="white"/>
<path d="M15.4923 54.2755L20.6468 56.9562L6.68139 59L1 57.2993L15.4923 54.2755Z" fill="white"/>
<path d="M26.7329 32.5361L31.3603 40.8887V11.2905L26.7329 2V32.5361Z" stroke="white" stroke-width="7"/>
<path d="M47.3325 32.5361L42.7051 40.8887V11.2905L47.3325 2V32.5361Z" stroke="white" stroke-width="7"/>
<path d="M17.0236 43.1544L21.7509 45.8813L13.1002 31.3868L8.09874 28.2007L17.0236 43.1544Z" stroke="white" stroke-width="7"/>
<path d="M57.1932 43.1544L52.4659 45.8813L61.1166 31.3868L66.1181 28.2007L57.1932 43.1544Z" stroke="white" stroke-width="7"/>
<path d="M58.5077 54.2755L53.3532 56.9562L67.3186 59L73 57.2993L58.5077 54.2755Z" stroke="white" stroke-width="7"/>
<path d="M15.4923 54.2755L20.6468 56.9562L6.68139 59L1 57.2993L15.4923 54.2755Z" stroke="white" stroke-width="7"/>
<path d="M93 16.8633V51.5299H95.1277V19.03H101.255H109.766L103.383 32.03H102.855L104.983 34.1966H105.511L114.021 16.8633H101.255H93Z" fill="white"/>
<path d="M122.532 16.8633L113.626 35.0008L114.852 36.8374L124.66 16.8633H122.532Z" fill="white"/>
<path d="M113.756 39.0704L122.532 51.5299H124.66L114.852 36.8374L113.756 39.0704Z" fill="white"/>
<path d="M113.626 35.0008L112.502 37.2905L113.756 39.0704L114.852 36.8374L113.626 35.0008Z" fill="white"/>
<path d="M112.502 37.2905L105.511 51.5299H107.638L113.756 39.0704L112.502 37.2905Z" fill="white"/>
<path d="M126.787 51.5299V16.8633H124.66V51.5299H126.787Z" fill="white"/>
<path d="M135.298 16.8633H133.17V49.3633H135.298V16.8633Z" fill="white"/>
<path d="M133.17 51.5299H143.809L145.936 49.3633H135.298H133.17V51.5299Z" fill="white"/>
<path fill-rule="evenodd" clip-rule="evenodd" d="M154.215 47.7638C147.256 40.6774 147.256 29.3226 154.215 22.2361V22.2361C161.355 14.9652 173.071 14.9652 180.211 22.2361V22.2361C187.17 29.3226 187.17 40.6774 180.211 47.7639V47.7639C173.071 55.0348 161.355 55.0348 154.215 47.7638V47.7638ZM178.044 24.3643C172.094 18.3052 162.331 18.3052 156.381 24.3643V24.3643C150.582 30.2697 150.582 39.732 156.381 45.6374V45.6374C162.331 51.6964 172.094 51.6964 178.044 45.6374V45.6374C183.843 39.732 183.843 30.2697 178.044 24.3643V24.3643Z" fill="white"/>
<path d="M190.617 51.5299V16.8633L194.872 16.8631L211.894 16.8633V25.5297L203.383 35L214.021 51.5299L211.894 51.5297L201.255 35L209.766 25.5297V19.0297H192.745V36.8374V51.5297L190.617 51.5299Z" fill="white"/>
<path d="M220.404 16.8633V51.5299L222.532 51.5298V16.8633H220.404Z" fill="white"/>
<path d="M239.553 51.5299L241.681 51.5297L234.689 37.2905L233.436 39.0704L239.553 51.5299Z" fill="white"/>
<path d="M222.532 51.5298L224.66 51.5297L233.436 39.0704L232.339 36.8374L222.532 51.5298Z" fill="white"/>
<path d="M234.689 37.2905L233.565 35.0008L232.339 36.8374L233.436 39.0704L234.689 37.2905Z" fill="white"/>
<path d="M224.66 16.8633H222.532L232.339 36.8374L233.565 35.0008L224.66 16.8633Z" fill="white"/>
<path d="M239.553 31.1052L241.681 35.0008V21.1964V16.8633H239.553V31.1052Z" fill="white"/>
<path d="M241.681 16.8633V21.1964L260.83 51.5297V47.1964L241.681 16.8633Z" fill="white"/>
<path d="M260.83 51.5297H262.957V16.8631H260.83V47.1964V51.5297Z" fill="white"/>
<path d="M271.468 16.8631V19.0297H282.106V51.5297L284.234 51.5299V19.0297H297L294.872 16.8633L271.468 16.8631Z" fill="white"/>
<path d="M112.502 37.2905L105.511 51.5299H107.638L113.756 39.0704M112.502 37.2905L113.626 35.0008M112.502 37.2905L113.756 39.0704M113.626 35.0008L122.532 16.8633H124.66M113.626 35.0008L114.852 36.8374M124.66 51.5299H126.787V16.8633H124.66M124.66 51.5299H122.532L113.756 39.0704M124.66 51.5299V16.8633M124.66 51.5299L114.852 36.8374M124.66 16.8633L114.852 36.8374M133.17 49.3633V16.8633H135.298V49.3633M133.17 49.3633V51.5299H143.809L145.936 49.3633H135.298M133.17 49.3633H135.298M222.532 16.8633H220.404V51.5299L222.532 51.5298M222.532 16.8633H224.66L233.565 35.0008M222.532 16.8633V51.5298M222.532 16.8633L232.339 36.8374M222.532 51.5298L224.66 51.5297L233.436 39.0704M222.532 51.5298L232.339 36.8374M234.689 37.2905L241.681 51.5297L239.553 51.5299L233.436 39.0704M234.689 37.2905L233.565 35.0008M234.689 37.2905L233.436 39.0704M233.565 35.0008L232.339 36.8374M241.681 16.8633H239.553V31.1052L241.681 35.0008V21.1964M241.681 16.8633V21.1964M241.681 16.8633L260.83 47.1964M241.681 21.1964L260.83 51.5297M260.83 51.5297H262.957V16.8631H260.83V47.1964M260.83 51.5297V47.1964M114.852 36.8374L113.756 39.0704M233.436 39.0704L232.339 36.8374M93 16.8633V51.5299H95.1277V19.03H101.255H109.766L103.383 32.03H102.855L104.983 34.1966H105.511L114.021 16.8633H101.255H93ZM190.617 51.5299V16.8633L194.872 16.8631L211.894 16.8633V25.5297L203.383 35L214.021 51.5299L211.894 51.5297L201.255 35L209.766 25.5297V19.0297H192.745V36.8374V51.5297L190.617 51.5299ZM271.468 16.8631V19.0297H282.106V51.5297L284.234 51.5299V19.0297H297L294.872 16.8633L271.468 16.8631ZM180.211 22.2361V22.2361C173.071 14.9652 161.355 14.9652 154.215 22.2361V22.2361C147.256 29.3226 147.256 40.6774 154.215 47.7638V47.7638C161.355 55.0348 173.071 55.0348 180.211 47.7639V47.7639C187.17 40.6774 187.17 29.3226 180.211 22.2361ZM178.044 24.3643V24.3643C172.094 18.3052 162.331 18.3052 156.381 24.3643V24.3643C150.582 30.2697 150.582 39.732 156.381 45.6374V45.6374C162.331 51.6964 172.094 51.6964 178.044 45.6374V45.6374C183.843 39.732 183.843 30.2697 178.044 24.3643Z" stroke="white" stroke-width="3"/>
</svg>
