<svg width="188" height="60" viewBox="0 0 188 60" fill="none" xmlns="http://www.w3.org/2000/svg">
<path d="M112.241 9.64286L111.471 8.76096C107.799 4.55433 101.326 4.26604 97.2386 8.07042V8.07042C93.1951 11.8338 93.0296 18.2439 96.931 22.1544V22.1544C101.084 26.3171 107.948 25.8899 111.553 21.2443L112.241 20.3571V17.1429H106.897V18.2143H111.172V20.3571L110.967 20.6311C107.693 25.007 101.299 25.4612 97.4391 21.5922V21.5922C93.8475 17.9923 94.0183 12.0798 97.7509 8.62638V8.62638C101.546 5.1149 107.555 5.41235 110.915 9.342L111.172 9.64286M112.241 9.64286H111.172M112.241 9.64286V10.7143H111.172V9.64286M123.662 31.0714H122.2L121.862 32.1429M123.662 31.0714H121.131L114.379 50.3571H115.448L118.149 42.8571M123.662 31.0714H124.731L131.483 50.3571H130.414L127.713 42.8571M123.662 31.0714L124 32.1429M128.169 43.9286H117.693M112.241 35.3571L111.471 34.4752C107.799 30.2686 101.326 29.9803 97.2386 33.7847V33.7847C93.1951 37.548 93.0296 43.9582 96.931 47.8687V47.8687C101.084 52.0314 107.948 51.6042 111.553 46.9586L112.241 46.0714V42.8571H106.897V43.9286H111.172V46.0714L110.967 46.3453C107.693 50.7213 101.299 51.1755 97.4391 47.3065V47.3065C93.8475 43.7066 94.0183 37.7941 97.7509 34.3407V34.3407C101.546 30.8292 107.555 31.1266 110.915 35.0563L111.172 35.3571M112.241 35.3571H111.172M112.241 35.3571V36.4286H111.172V35.3571M127.713 42.8571H118.149M127.713 42.8571L124 32.1429M118.149 42.8571L121.862 32.1429M121.862 32.1429H124M135.759 31.0714V50.3571H134.69V30H135.759M135.759 31.0714V30M135.759 31.0714L143.241 50.3571H144.31M135.759 30H136.828L144.31 50.3571M144.31 50.3571H145.379L152.862 31.0714M144.31 50.3571L151.793 30H152.862M152.862 30H153.931V50.3571H152.862V31.0714M152.862 30V31.0714M159.276 40.1786V31.0714H168.897V30H158.207V50.3571H168.897V49.2857H159.276V40.7143M159.276 40.1786H167.828V40.7143H159.276M159.276 40.1786V40.7143M117.586 5.35714V24.6429H116.517V5.35714H117.586ZM141.103 5.35714V6.42857H147.517V25.7143H148.586V6.42857H155V5.35714H141.103ZM138.09 20.3195V20.3195C140.498 17.1819 140.498 12.8181 138.09 9.68049V9.68049C134.695 5.25637 128.08 5.10243 124.482 9.36379V9.36379C121.734 12.6188 121.734 17.3811 124.482 20.6362V20.6362C128.08 24.8976 134.695 24.7436 138.09 20.3195ZM123.939 8.82189V8.82189C120.897 12.379 120.897 17.621 123.939 21.1781V21.1781C127.84 25.7402 134.941 25.5888 138.644 20.8646V20.8646C141.344 17.4208 141.344 12.5792 138.644 9.13544V9.13544C134.941 4.41124 127.84 4.25983 123.939 8.82189Z" stroke="white" stroke-opacity="0.7" stroke-width="2"/>
<path d="M186 32.1429V32.1429C183.241 30.7603 180.078 30.4124 177.085 31.1625L176.482 31.3135C174.537 31.801 173.172 33.5494 173.172 35.555V36.4946C173.172 38.3115 174.486 39.8622 176.278 40.1616L182.586 41.2154C184.556 41.5445 186 43.2496 186 45.2473V45.5431C186 48.2018 183.845 50.3571 181.186 50.3571H177.629C175.606 50.3571 173.811 49.0621 173.172 47.1429V47.1429" stroke="white" stroke-opacity="0.7" stroke-width="3"/>
<path d="M23.9278 52.2204L27.6205 48.8584L18.852 39.2871L28.7283 47.8498L34.2994 42.1024L23.4434 31.731L35.07 40.7256L40.3038 34.6101L29.1105 23.8706L41.4117 33.6015L47.6893 27.886L32.513 11.3203L16.248 18.7019L6.74502 40.8574L23.9278 52.2204Z" fill="white" fill-opacity="0.7"/>
<path d="M47.6893 27.886L41.4117 33.6015L37.4948 41.8939L38.8438 43.3664L52.716 34.1122L47.6893 27.886Z" fill="white" fill-opacity="0.7"/>
<path d="M61.3993 43.2153L62.7076 48.2086L84.0513 47.9849L88.3124 23.4058L78.3544 7.8633L55.8146 13.7324L47.9313 16.3186L54.7532 32.1443L56.7567 31.6226L58.0387 22.221L74.2203 20.6745L58.4312 23.719L59.5228 31.9692L74.7026 30.6835L59.4144 33.5976L61.0068 41.7173L74.4223 39.8242L61.3993 43.2153Z" fill="white" fill-opacity="0.7"/>
</svg>
