<svg width="50" height="50" viewBox="0 0 50 50" fill="none" xmlns="http://www.w3.org/2000/svg">
<path d="M25 29.2857L22.5 27.5L20.7143 25L22.5 22.5L25 20.7143L27.5 22.5L29.2857 25L27.5 27.5L25 29.2857Z" fill="#979469"/>
<path fill-rule="evenodd" clip-rule="evenodd" d="M25 50C38.8071 50 50 38.8071 50 25C50 11.1929 38.8071 0 25 0C11.1929 0 0 11.1929 0 25C0 38.8071 11.1929 50 25 50ZM25 50L23.3333 40.8333L11.25 38.75L9.16667 26.6667L0 25L9.16667 23.3333L11.25 11.25L23.3333 9.16667L25 0L26.6667 9.16667L38.75 11.25L40.8333 23.3333L50 25L40.8333 26.6667L38.75 38.75L26.6667 40.8333L25 50Z" fill="#979469"/>
<path d="M32.5 22.5L38.75 11.25L27.5 17.5L32.5 22.5Z" fill="#979469"/>
<path d="M22.5 17.5L11.25 11.25L17.5 22.5L22.5 17.5Z" fill="#979469"/>
<path d="M11.25 38.75L22.5 32.5L17.5 27.5L11.25 38.75Z" fill="#979469"/>
<path d="M27.5 32.5L38.75 38.75L32.5 27.5L27.5 32.5Z" fill="#979469"/>
</svg>
